<?xml version="1.0" standalone="no"?>
<!DOCTYPE svg PUBLIC "-//W3C//DTD SVG 20010904//EN"
 "http://www.w3.org/TR/2001/REC-SVG-20010904/DTD/svg10.dtd">
<svg version="1.0" xmlns="http://www.w3.org/2000/svg"
 width="1236.000000pt" height="1600.000000pt" viewBox="0 0 1236.000000 1600.000000"
 preserveAspectRatio="xMidYMid meet">

<g transform="translate(0.000000,1600.000000) scale(0.100000,-0.100000)"
fill="#000000" stroke="none">
<path d="M5734 14453 c-5 -10 -11 -193 -14 -408 l-5 -390 -303 -25 c-167 -14
-305 -24 -307 -21 -3 2 -5 142 -5 311 0 191 -4 319 -11 338 -12 34 -40 46 -66
27 -17 -12 -18 -41 -23 -352 l-5 -338 -61 -5 c-67 -6 -94 -21 -94 -55 0 -38
24 -48 94 -43 l63 5 5 -68 c6 -72 19 -99 49 -99 32 0 46 27 54 104 l7 76 31 1
c18 0 151 10 297 23 146 13 268 21 273 19 4 -2 7 -28 7 -56 0 -58 20 -97 50
-97 10 0 26 10 34 22 14 20 16 84 16 504 0 323 -4 491 -11 513 -9 25 -17 31
-39 31 -17 0 -31 -7 -36 -17z"/>
<path d="M6475 14316 c-25 -11 -65 -76 -249 -402 -121 -214 -221 -393 -224
-397 -9 -18 9 -55 30 -60 33 -9 54 8 90 73 l33 61 325 -6 c179 -3 339 -8 355
-11 24 -3 37 -15 63 -59 28 -47 37 -55 63 -55 41 0 57 35 35 79 l-17 31 69 0
c54 0 72 4 85 18 47 52 3 82 -119 82 l-92 0 -63 108 c-34 59 -81 139 -104 177
-23 39 -79 134 -124 213 -70 120 -103 164 -123 162 -2 -1 -16 -7 -33 -14z m55
-168 c13 -24 42 -74 65 -113 80 -134 205 -353 205 -360 0 -4 -30 -5 -67 -1
-38 3 -168 6 -290 7 -158 1 -223 5 -223 13 0 6 49 97 108 201 60 105 121 214
137 243 15 28 31 52 35 52 3 0 17 -19 30 -42z"/>
<path d="M4639 14285 c-198 -73 -447 -384 -558 -698 -50 -142 -57 -291 -17
-353 42 -63 126 -81 211 -44 115 49 262 187 364 340 79 120 174 313 200 410
29 105 29 221 -1 280 -37 73 -112 97 -199 65z m109 -98 c67 -80 -42 -399 -215
-629 -178 -236 -344 -346 -391 -258 -43 81 43 342 181 554 150 228 370 400
425 333z"/>
<path d="M7145 14284 c-23 -24 -30 -1 155 -489 23 -60 65 -175 94 -255 73
-199 81 -217 105 -230 31 -16 61 3 61 39 0 34 -326 908 -348 934 -19 21 -46
22 -67 1z"/>
<path d="M7522 14228 c-20 -20 -15 -44 54 -258 36 -113 104 -326 151 -475 93
-294 103 -319 134 -336 43 -23 46 -19 302 421 50 85 123 209 162 275 105 175
128 221 120 245 -8 25 -50 37 -70 20 -14 -12 -87 -130 -188 -305 -22 -38 -52
-90 -67 -115 -15 -25 -71 -120 -125 -212 -54 -93 -101 -168 -104 -168 -3 0
-30 75 -59 168 -209 659 -230 723 -244 739 -13 16 -50 17 -66 1z"/>
<path d="M3878 14063 c-62 -70 -163 -421 -194 -670 -10 -79 -21 -143 -24 -143
-24 0 -188 422 -221 570 -19 86 -62 116 -94 66 -14 -21 -13 -64 11 -462 27
-457 31 -484 73 -484 43 0 45 18 34 258 -5 125 -8 229 -7 231 2 2 13 -18 24
-45 22 -52 30 -70 105 -209 68 -128 90 -155 124 -155 39 0 48 28 55 175 9 189
49 427 86 520 6 13 9 -13 10 -70 2 -250 72 -611 147 -757 20 -41 57 -62 82
-48 27 14 27 45 -3 111 -31 70 -61 179 -94 337 -24 119 -26 146 -28 446 -2
175 -5 324 -8 332 -8 20 -60 17 -78 -3z"/>
<path d="M8988 13863 c-8 -10 -37 -55 -63 -100 -27 -46 -79 -120 -115 -165
-84 -105 -354 -364 -358 -344 -2 8 17 129 42 268 54 302 56 324 21 340 -49 22
-59 -2 -108 -277 -117 -652 -130 -733 -124 -757 8 -32 41 -41 67 -20 15 13 25
46 40 126 11 61 20 111 20 113 0 14 31 -7 88 -59 129 -120 165 -150 390 -330
53 -42 95 -49 112 -19 19 36 15 41 -96 133 -200 165 -295 246 -352 301 l-64
60 160 153 c331 318 502 594 368 594 -7 0 -20 -8 -28 -17z"/>
<path d="M4650 12491 c-19 -11 -60 -50 -91 -88 -93 -114 -115 -131 -519 -383
-101 -63 -433 -234 -600 -308 -166 -75 -521 -255 -575 -293 -104 -72 -183
-183 -214 -302 -98 -374 66 -779 406 -1004 239 -157 538 -233 923 -233 313 0
631 53 961 159 51 17 95 29 96 27 7 -7 -205 -95 -312 -129 -155 -50 -297 -77
-403 -77 -50 0 -94 -4 -97 -10 -3 -5 -1 -19 5 -31 7 -11 9 -23 6 -26 -3 -3
-77 3 -165 12 -88 10 -167 15 -175 12 -25 -10 -18 -36 12 -44 20 -6 3 -9 -63
-14 -137 -9 -205 -55 -112 -76 42 -9 41 -9 -38 -16 -178 -16 -310 -60 -310
-102 0 -18 6 -20 70 -18 l70 2 -40 -18 c-22 -10 -67 -31 -100 -46 -33 -15
-107 -50 -165 -78 -58 -28 -141 -65 -185 -82 -110 -43 -107 -58 15 -67 52 -4
103 -5 113 -2 31 10 18 -15 -25 -47 -24 -17 -76 -49 -115 -71 -51 -28 -73 -46
-73 -59 0 -15 7 -19 33 -19 17 0 48 4 66 10 19 5 36 8 39 6 7 -8 -103 -84
-198 -138 -58 -33 -96 -61 -98 -72 -4 -17 1 -18 64 -11 37 4 74 9 81 12 8 3
-13 -32 -46 -78 -75 -105 -141 -232 -148 -287 -5 -40 -5 -42 21 -42 34 0 105
36 236 120 197 127 370 221 370 202 0 -4 -10 -23 -23 -42 -52 -78 -71 -166
-42 -190 13 -11 29 1 107 80 78 78 262 219 273 208 2 -2 -6 -30 -17 -63 -30
-88 -17 -174 25 -175 4 0 16 14 25 31 40 72 134 189 203 253 l74 68 7 -72 c11
-128 53 -134 99 -13 27 70 108 213 152 267 l24 29 12 -46 c15 -51 42 -82 66
-74 8 4 15 15 15 26 0 37 162 322 176 309 2 -2 -14 -49 -36 -105 -142 -360
-212 -841 -169 -1150 16 -117 36 -121 90 -19 l36 68 6 -84 c9 -108 39 -224 81
-314 38 -81 99 -154 127 -154 16 0 19 8 19 58 l0 57 45 -84 c98 -182 209 -291
271 -267 12 5 14 15 9 49 l-6 42 27 -30 c14 -16 48 -53 74 -80 166 -176 242
-332 260 -535 6 -58 18 -122 27 -143 9 -20 14 -39 12 -40 -8 -7 -225 -67 -332
-93 -143 -34 -321 -64 -378 -64 -43 0 -48 3 -59 31 -27 63 -102 108 -182 109
-45 0 -49 2 -62 34 -19 46 -80 104 -135 130 -38 17 -65 21 -151 21 -98 0 -110
-3 -171 -32 -36 -18 -87 -51 -112 -74 l-47 -41 -40 35 c-52 48 -90 66 -157 77
-103 17 -197 -16 -274 -97 -108 -112 -136 -267 -74 -402 14 -29 25 -55 25 -57
0 -2 -10 -4 -23 -4 -43 0 -129 -53 -161 -98 -29 -41 -31 -50 -31 -130 0 -70 4
-96 23 -133 47 -95 169 -187 272 -204 l38 -6 -34 -50 c-64 -95 -70 -201 -17
-288 92 -149 304 -188 515 -96 15 6 18 2 18 -31 0 -22 11 -63 25 -91 73 -158
300 -160 413 -4 l28 38 41 -37 c127 -112 362 -66 446 88 50 93 45 189 -14 257
-28 32 -29 35 -12 41 136 46 233 163 233 282 0 89 -35 151 -102 182 l-37 16
72 41 c40 22 201 115 359 206 l288 166 18 -23 c28 -36 121 -83 186 -95 33 -6
92 -11 133 -11 70 0 73 -1 87 -29 28 -53 104 -110 178 -132 134 -41 269 -16
358 65 19 18 61 40 93 51 62 20 129 70 152 115 8 16 26 31 42 34 46 12 104 55
118 90 11 25 25 37 62 51 78 28 179 92 217 136 l35 42 138 -78 c201 -114 262
-149 423 -243 80 -46 182 -104 227 -129 73 -39 82 -47 73 -63 -15 -28 -12
-113 5 -153 21 -51 71 -105 119 -129 23 -11 43 -22 45 -24 1 -1 -6 -13 -17
-25 -54 -58 -74 -157 -48 -236 24 -71 75 -126 154 -165 60 -30 75 -33 153 -33
l87 0 4 -85 c3 -60 11 -97 25 -126 96 -185 348 -199 539 -31 l45 40 32 -30
c46 -43 77 -59 143 -79 181 -52 390 61 435 235 l12 49 71 -1 c174 -2 298 128
313 328 9 129 -46 288 -133 382 -24 26 -43 47 -41 48 1 1 18 11 37 23 87 52
156 162 167 265 14 133 -77 286 -208 352 -130 66 -306 72 -421 14 -21 -11 -40
-19 -43 -19 -3 0 -5 21 -5 48 -1 87 -58 182 -144 237 -108 69 -227 81 -336 34
-46 -20 -131 -97 -142 -129 -3 -9 -20 2 -53 34 -111 106 -271 141 -416 91 -91
-31 -165 -121 -171 -208 -2 -26 -8 -37 -19 -37 -9 0 -112 14 -230 30 -118 17
-335 46 -484 65 -148 19 -282 38 -297 41 l-26 5 25 56 c46 99 23 235 -71 423
l-43 85 13 57 c30 130 137 351 243 503 115 163 198 319 235 440 21 69 36 208
36 345 0 149 14 245 40 272 l19 21 12 -29 c28 -73 61 -227 66 -309 7 -111 19
-124 72 -80 16 14 35 42 41 63 22 70 21 69 37 38 29 -55 53 -140 60 -210 8
-95 17 -118 46 -114 21 3 48 46 74 117 8 22 11 20 40 -35 17 -33 43 -97 58
-144 32 -98 57 -133 79 -110 17 18 46 113 46 151 0 15 4 30 9 33 16 10 129
-122 185 -216 30 -51 67 -124 83 -162 28 -70 48 -90 65 -65 9 14 4 234 -7 279
l-6 25 18 -25 c10 -13 28 -36 40 -50 19 -21 24 -23 33 -10 15 24 12 68 -14
164 l-24 90 42 -49 c77 -88 99 -36 47 111 -26 74 -95 193 -121 209 -5 3 -10
10 -10 16 0 5 8 4 19 -2 25 -16 51 -5 51 23 0 33 -48 123 -93 175 -38 42 -39
44 -13 37 81 -20 -31 139 -157 224 -46 30 -42 39 8 18 37 -16 75 -21 75 -11 0
4 -7 19 -14 34 -33 63 -145 134 -234 147 -49 7 -45 21 8 26 55 5 52 34 -7 61
-41 19 -65 22 -159 22 l-111 0 31 22 c17 12 41 29 53 38 14 10 20 21 16 32 -5
14 -19 15 -112 7 -144 -11 -206 -9 -273 12 -51 15 -60 22 -78 59 -11 23 -20
52 -20 66 l0 25 268 1 c322 1 567 21 949 78 343 52 609 211 722 434 38 74 61
185 61 296 0 140 -32 265 -106 413 -109 217 -208 295 -734 579 -96 52 -218
126 -270 165 -113 85 -334 305 -444 444 -98 123 -146 164 -192 164 -87 0 -57
-106 99 -349 72 -113 90 -137 263 -341 148 -174 169 -195 377 -374 135 -116
229 -215 257 -266 25 -46 -47 -114 -179 -170 -328 -140 -1027 -171 -1571 -70
-109 21 -328 75 -337 83 -13 13 83 30 192 34 66 2 126 6 133 8 27 9 -10 47
-76 78 -59 27 -79 31 -177 35 -60 2 -130 -1 -155 -7 -24 -5 -46 -8 -48 -6 -8
8 96 66 173 97 72 29 90 33 183 33 97 0 103 1 100 20 -2 13 -25 31 -68 53
-167 84 -436 36 -624 -111 -37 -29 -38 -30 -26 -6 7 13 45 56 84 95 111 111
255 184 363 184 35 0 43 3 43 18 0 43 -191 65 -320 38 -108 -22 -228 -85 -300
-156 -33 -32 -60 -56 -60 -53 0 13 74 113 112 152 90 91 213 161 283 161 33 0
33 28 -1 40 -66 25 -215 -5 -348 -69 -100 -49 -246 -159 -303 -229 -48 -58
-54 -48 -21 31 55 134 169 263 286 325 34 18 62 39 62 47 0 8 -16 16 -38 20
-134 22 -483 -198 -630 -399 -20 -27 -38 -44 -40 -38 -1 5 4 39 13 74 43 165
154 341 248 389 47 25 49 49 4 49 -80 0 -332 -158 -475 -298 -49 -48 -147
-159 -219 -247 -71 -88 -159 -188 -194 -223 -140 -138 -389 -212 -715 -212
-267 0 -468 56 -549 152 -24 28 -26 38 -21 79 23 175 92 267 516 689 326 325
370 379 421 525 23 65 30 148 14 164 -20 20 -60 20 -95 2z m-390 -453 c-27
-141 -121 -329 -211 -423 -96 -101 -217 -257 -249 -322 -92 -186 -70 -416 48
-513 64 -53 84 -35 30 26 -32 37 -32 37 -8 31 142 -39 420 -43 620 -8 279 47
395 77 501 132 63 31 201 44 329 30 204 -22 393 -81 522 -163 61 -40 162 -126
166 -142 1 -6 -24 -32 -55 -57 -583 -465 -1552 -653 -2339 -454 -419 107 -724
313 -857 578 -51 103 -70 182 -65 286 4 113 44 199 133 286 54 54 89 75 330
196 149 74 337 166 419 204 192 89 420 213 571 308 65 42 121 74 123 72 3 -2
-1 -33 -8 -67z m4220 -124 c50 -59 267 -212 391 -275 115 -57 423 -231 480
-270 31 -21 73 -57 92 -80 46 -53 123 -207 142 -284 19 -74 19 -213 1 -282
-100 -375 -555 -667 -1193 -763 -172 -26 -512 -37 -709 -22 -208 16 -379 59
-525 133 -50 25 -58 34 -81 86 -64 143 -94 310 -68 373 19 47 53 41 134 -26
71 -58 141 -141 192 -227 17 -29 38 -53 46 -55 37 -7 31 134 -12 270 -36 115
-117 234 -219 322 l-46 39 35 -7 c266 -55 459 -75 825 -86 171 -5 344 -12 385
-16 148 -12 492 29 594 71 20 8 36 11 36 6 0 -11 -67 -71 -80 -71 -6 0 -10 -7
-10 -15 0 -23 42 -18 79 9 73 54 106 131 106 246 0 67 -5 96 -22 134 -27 57
-135 171 -283 298 -232 199 -260 236 -314 406 -32 102 -34 127 -8 113 10 -5
25 -17 32 -27z m-2433 -426 c-42 -94 -59 -149 -64 -202 -11 -115 13 -147 59
-78 38 57 97 110 163 147 58 32 140 61 133 47 -2 -4 -20 -39 -40 -78 -42 -82
-68 -188 -51 -205 18 -18 40 -4 62 39 11 21 38 55 61 76 49 44 153 96 193 96
27 0 27 0 -27 -65 -31 -35 -64 -82 -75 -103 -26 -50 -54 -149 -46 -162 10 -16
35 -12 35 6 0 27 98 114 164 145 73 34 176 55 201 42 13 -8 7 -16 -37 -45 -70
-46 -165 -134 -173 -160 -12 -37 9 -39 85 -7 77 33 230 53 230 32 0 -6 -12
-14 -27 -18 -37 -9 -140 -61 -174 -88 -31 -24 -38 -57 -13 -57 9 0 27 9 41 20
64 50 191 3 309 -114 64 -65 134 -174 134 -212 0 -6 -36 12 -79 41 -88 59
-174 95 -226 95 -57 0 -44 -26 23 -45 93 -27 96 -30 71 -65 -18 -23 -22 -42
-21 -107 0 -43 7 -106 16 -139 20 -79 21 -77 -11 -60 -32 16 -85 71 -102 104
-7 12 -18 22 -26 22 -22 0 -19 -65 6 -172 12 -49 19 -92 16 -94 -16 -17 -126
78 -156 135 -7 12 -16 19 -22 16 -19 -12 -8 -56 41 -151 27 -55 52 -119 56
-143 7 -41 6 -43 -13 -33 -33 18 -84 83 -105 133 -35 84 -67 73 -48 -15 11
-54 4 -176 -10 -176 -33 0 -130 176 -206 374 -82 212 -140 291 -334 451 -194
161 -261 201 -427 255 -155 51 -279 72 -419 73 l-111 0 105 119 c111 124 200
195 315 248 35 17 81 31 103 33 38 2 39 1 34 -28 -2 -16 -5 -70 -5 -120 0 -76
3 -90 17 -93 11 -2 23 10 36 41 34 76 162 190 257 229 75 31 90 34 82 16z m97
-933 c29 -34 82 -128 109 -194 10 -25 34 -112 53 -195 56 -245 102 -365 198
-514 66 -103 152 -173 178 -147 3 3 -5 46 -18 96 -24 92 -30 176 -17 264 l6
48 37 -104 c44 -125 86 -197 119 -206 22 -6 45 12 35 28 -14 24 -23 124 -18
212 l7 102 67 -66 c66 -65 157 -119 199 -119 33 0 25 22 -30 75 -55 53 -131
198 -163 307 -23 80 -21 80 26 8 57 -88 171 -199 240 -235 31 -16 60 -26 64
-22 4 3 -12 27 -35 52 -22 24 -41 49 -41 54 0 6 24 0 53 -13 111 -49 258 -84
395 -94 l86 -7 7 -41 c11 -62 34 -109 83 -172 57 -72 77 -128 77 -217 1 -132
-49 -228 -168 -320 -85 -66 -219 -205 -269 -280 -82 -121 -121 -228 -164 -450
-34 -175 -70 -316 -95 -365 -42 -84 -95 -239 -95 -279 0 -74 21 -140 72 -223
106 -173 158 -309 158 -411 l0 -50 -21 27 c-26 34 -62 34 -111 0 -75 -52 -121
-156 -117 -264 2 -57 -17 -110 -40 -110 -12 0 -68 64 -86 100 -16 31 -29 37
-40 20 -8 -13 40 -112 65 -135 11 -10 20 -22 20 -27 0 -14 -138 -76 -199 -89
-31 -6 -98 -9 -152 -7 -76 4 -107 10 -155 32 l-59 28 38 19 c40 21 97 91 97
120 0 36 -23 31 -64 -14 -23 -25 -53 -53 -68 -62 l-28 -17 0 59 c0 185 -149
433 -246 409 -41 -11 -58 -59 -49 -140 4 -39 8 -81 8 -94 2 -20 -14 -30 -128
-82 -71 -33 -134 -59 -138 -57 -4 1 -30 52 -57 113 -116 262 -299 544 -351
544 -25 0 -24 -12 2 -36 39 -35 82 -106 101 -166 14 -46 18 -92 18 -196 1
-154 9 -202 49 -284 l29 -57 -47 -16 -46 -16 -27 33 c-32 37 -55 99 -69 189
-12 78 -43 177 -77 244 -24 49 -116 178 -150 213 -44 44 -182 205 -182 212 0
16 -30 19 -45 4 -14 -14 -18 -14 -40 0 -89 59 -163 160 -196 268 -24 77 -43
87 -77 41 l-19 -26 -37 74 c-42 87 -77 216 -76 279 3 82 3 82 -32 78 -32 -3
-33 -2 -40 42 -3 25 -7 108 -7 185 -3 459 162 974 425 1330 75 101 127 147
229 200 50 26 142 78 205 115 63 37 174 97 245 133 72 36 146 76 165 89 19 13
69 47 110 75 41 28 111 83 155 121 l80 70 26 -31 c15 -18 39 -45 53 -62z
m-1409 -830 c-36 -59 -65 -111 -65 -115 0 -4 -28 -29 -62 -56 -83 -64 -185
-168 -228 -232 -23 -33 -42 -52 -55 -52 -13 0 -68 -46 -140 -116 -81 -79 -127
-116 -140 -115 -11 1 -43 -14 -70 -34 -78 -56 -169 -95 -208 -88 -23 3 -47 -1
-73 -15 -21 -10 -64 -25 -94 -32 -30 -7 -72 -21 -92 -32 -31 -15 -38 -16 -38
-4 0 28 -40 28 -133 -2 -51 -17 -128 -38 -172 -47 -44 -10 -116 -31 -160 -47
-129 -47 -122 -47 -95 -7 13 19 48 67 79 108 52 69 54 74 37 87 -17 12 -11 20
83 110 97 93 123 134 84 134 -12 0 1 19 40 58 31 32 57 61 57 65 0 4 -9 7 -20
7 -11 0 -20 4 -20 9 0 28 162 140 293 202 35 17 47 29 47 45 0 18 11 27 55 43
59 22 158 41 219 41 34 0 38 2 33 21 -8 29 33 42 116 36 63 -6 68 -5 62 13 -5
16 2 19 54 25 33 4 99 4 145 0 74 -6 87 -5 92 9 3 9 2 22 -4 29 -8 9 14 13
101 14 69 2 155 12 222 26 61 12 111 22 113 21 1 -1 -27 -50 -63 -109z m3208
-114 c23 -6 59 -13 80 -16 28 -4 37 -11 37 -25 0 -18 7 -20 70 -20 88 0 141
-19 133 -49 -4 -18 -1 -21 24 -21 32 0 143 -51 163 -75 8 -10 8 -19 -2 -35
-11 -19 -10 -24 7 -36 92 -66 114 -86 143 -129 22 -32 31 -56 28 -70 -3 -13 2
-29 13 -42 24 -26 46 -69 59 -115 8 -31 8 -38 -3 -38 -30 0 -25 -25 19 -88 40
-60 65 -125 66 -174 0 -13 -8 -18 -30 -18 -34 0 -37 -11 -15 -63 16 -38 21
-117 7 -117 -4 0 -13 5 -19 11 -18 18 -46 2 -40 -21 7 -26 3 -25 -41 9 -36 29
-218 131 -232 131 -5 0 -11 -7 -14 -16 -5 -13 -16 -6 -54 32 -97 100 -142 135
-162 129 -14 -4 -20 -2 -20 8 0 17 -75 121 -132 183 -28 30 -47 43 -58 39 -13
-4 -22 7 -39 52 -12 32 -37 83 -56 115 -21 33 -33 63 -29 72 10 25 18 19 44
-26 114 -206 472 -537 687 -637 73 -34 83 -27 83 57 0 100 -25 230 -66 341
-118 316 -357 521 -609 521 l-61 0 -10 53 c-6 28 -14 60 -18 70 -9 20 -8 20
47 8z m112 -196 c97 -20 184 -68 267 -144 120 -111 205 -262 252 -446 28 -114
43 -225 30 -225 -16 0 -176 110 -274 188 -197 158 -343 319 -411 453 -16 32
-29 61 -29 65 0 4 23 -24 52 -62 28 -38 113 -130 188 -204 137 -137 241 -213
261 -193 12 12 12 13 -76 77 -100 74 -205 178 -205 204 l0 23 43 -29 c59 -41
103 -62 127 -62 30 0 24 17 -12 36 -18 9 -53 30 -76 47 -49 33 -45 51 11 49
50 -2 77 -15 124 -59 72 -68 73 -69 73 -43 0 15 -27 49 -77 100 -114 113 -258
199 -362 216 -22 4 -41 10 -41 15 0 13 56 11 135 -6z m-363 -512 c-4 -164 -21
-315 -41 -373 -46 -135 -155 -316 -442 -732 -58 -84 -76 -104 -83 -91 -14 26
2 98 49 221 83 211 202 400 314 500 122 108 160 196 171 387 7 109 20 185 32
185 2 0 2 -44 0 -97z m-104 -2 c27 -87 10 -217 -40 -316 -23 -45 -115 -144
-135 -145 -4 -1 -27 -5 -50 -9 -40 -8 -43 -7 -43 13 0 45 12 66 36 66 145 0
268 227 198 366 -18 37 -19 43 -5 52 24 17 27 15 39 -27z m-94 -67 c12 -4 16
-20 16 -55 0 -27 -3 -49 -7 -49 -13 0 -53 43 -53 57 0 15 18 53 25 53 2 0 10
-3 19 -6z m-75 -207 l43 -13 -31 -26 c-30 -26 -65 -28 -74 -5 -4 11 8 57 15
57 2 0 23 -6 47 -13z m-1125 -1712 c-9 -5 -41 -29 -70 -52 -30 -24 -56 -43
-58 -43 -2 0 -52 -23 -112 -51 -59 -28 -187 -86 -283 -129 -169 -74 -391 -174
-901 -403 -312 -140 -598 -273 -628 -293 -16 -10 -21 -19 -14 -26 8 -8 191 68
492 204 140 64 713 323 880 398 107 48 271 122 364 164 93 42 170 75 172 73 2
-1 1 -12 -2 -23 -3 -12 -40 -39 -92 -69 -158 -89 -517 -297 -527 -305 -5 -4
-41 -24 -80 -45 -74 -40 -339 -192 -492 -282 -51 -29 -95 -58 -98 -63 -4 -6
-17 -10 -29 -10 -13 0 -29 -6 -35 -14 -9 -10 -4 -19 22 -39 19 -14 42 -41 51
-60 33 -72 11 -193 -47 -255 -51 -55 -150 -79 -193 -47 -21 16 -54 20 -54 7 0
-19 39 -52 83 -71 52 -22 62 -44 60 -121 -3 -122 -102 -223 -218 -224 -59 0
-101 22 -134 70 -24 34 -24 35 -7 101 9 36 14 68 11 71 -11 11 -35 -24 -49
-71 -19 -66 -68 -119 -137 -152 -94 -44 -187 -26 -215 40 -18 44 -11 75 33
140 38 57 43 95 13 95 -10 0 -24 -9 -31 -21 -6 -11 -36 -33 -67 -47 -51 -24
-68 -27 -172 -27 -101 0 -120 3 -160 24 -108 56 -150 112 -150 198 0 60 19 88
68 103 83 27 152 93 152 148 0 31 -29 28 -56 -5 -46 -58 -188 -23 -282 68 -96
94 -115 213 -46 283 33 32 45 32 93 0 50 -33 128 -56 163 -48 32 7 38 34 8 34
-58 0 -127 71 -150 155 -17 62 -8 168 19 227 60 125 195 190 304 145 58 -25
63 -39 30 -104 -24 -50 -28 -70 -28 -146 0 -67 4 -90 15 -97 26 -17 35 -5 41
52 4 39 14 67 34 92 84 110 295 186 393 142 61 -28 66 -45 26 -102 -53 -77
-57 -174 -8 -174 8 0 17 14 21 31 14 71 123 133 233 132 103 -1 176 -54 151
-109 -15 -33 -14 -54 2 -54 21 0 44 31 54 70 l9 35 95 7 c288 21 887 199 1306
388 78 36 206 110 212 124 2 5 10 1 18 -10 12 -17 12 -20 -3 -29z m846 -5
c110 -56 147 -140 97 -222 -86 -141 -412 -241 -681 -209 -243 28 -383 116
-373 232 5 56 33 98 93 139 l44 31 11 -28 c5 -15 10 -43 9 -63 -5 -120 -5
-119 25 -150 70 -73 216 -109 362 -91 156 20 292 94 346 190 28 49 29 56 18
88 -12 31 -8 103 5 103 3 0 22 -9 44 -20z m585 -155 c677 -200 791 -234 942
-275 84 -23 157 -38 163 -35 31 19 3 36 -117 74 -132 41 -830 245 -1100 322
-84 23 -151 44 -149 46 2 3 80 -7 173 -21 281 -42 671 -96 701 -97 22 0 31 -9
52 -52 26 -51 52 -69 73 -48 7 7 6 19 -3 40 -10 25 -9 34 7 61 10 17 38 44 63
60 149 94 381 53 430 -75 10 -26 8 -37 -17 -82 -30 -57 -27 -72 15 -57 37 13
71 78 78 152 l7 62 56 21 c83 31 205 24 281 -16 95 -52 143 -152 106 -223 -28
-53 -46 -140 -36 -167 17 -45 60 -20 60 35 0 12 10 43 21 70 26 60 51 70 177
70 297 0 487 -255 338 -453 -14 -18 -16 -17 -58 5 -91 48 -298 19 -298 -43 0
-30 21 -32 90 -9 80 27 142 20 168 -19 122 -177 89 -474 -57 -522 -32 -11 -36
-10 -50 12 -58 89 -155 156 -241 166 -48 6 -50 5 -50 -18 0 -21 8 -26 58 -41
31 -9 76 -31 99 -48 37 -27 41 -34 36 -63 -18 -115 -157 -227 -283 -227 -82 1
-95 15 -96 103 -2 95 -31 172 -65 172 -28 0 -29 -13 -3 -98 17 -57 17 -59 -4
-102 -41 -84 -166 -152 -298 -162 -120 -9 -206 32 -241 115 l-14 34 45 46 c51
51 79 112 74 163 -2 26 -8 35 -25 37 -22 3 -25 -3 -38 -65 -3 -17 -17 -43 -30
-57 -21 -23 -32 -26 -87 -25 -74 1 -110 13 -172 56 -63 45 -99 102 -103 166
-6 86 18 110 130 132 20 4 27 11 25 23 -2 13 -17 19 -58 23 -67 7 -114 28
-171 77 -81 69 -121 161 -84 192 37 30 -1 55 -44 28 -16 -9 -31 -4 -97 34 -44
25 -155 87 -249 138 -93 52 -222 123 -285 160 -63 37 -148 86 -187 109 -52 29
-73 48 -73 61 0 11 2 20 4 20 3 0 145 -67 386 -183 249 -119 368 -176 415
-197 28 -12 115 -54 195 -92 240 -116 260 -123 260 -92 0 16 -183 107 -640
321 -124 58 -301 142 -395 188 -93 46 -180 86 -192 90 -14 4 -31 25 -45 53
-12 26 -24 50 -26 54 -4 8 -17 12 453 -127z m-1861 -274 c28 -31 137 -80 216
-97 41 -9 156 -20 255 -24 99 -5 238 -16 308 -26 l128 -17 -27 -28 c-34 -35
-111 -62 -178 -61 -28 0 -107 14 -176 31 -117 29 -137 31 -311 31 l-186 0 -61
30 c-51 26 -131 95 -120 105 8 8 124 75 129 75 3 0 14 -8 23 -19z m307 -275
c65 -55 190 -74 259 -38 43 21 114 16 87 -6 -28 -23 -107 -42 -177 -42 -96 0
-159 22 -217 75 -48 44 -48 44 -20 45 19 0 43 -12 68 -34z"/>
<path d="M7520 9811 c-71 -22 -188 -100 -257 -173 -62 -63 -88 -98 -214 -288
-102 -155 -187 -245 -265 -283 -33 -16 -44 -27 -44 -44 0 -54 76 -18 210 97
156 135 235 216 375 390 126 155 163 193 243 249 59 41 29 75 -48 52z"/>
<path d="M5183 9733 c-6 -2 28 -44 77 -93 95 -96 151 -176 225 -313 46 -88
126 -201 204 -289 53 -60 183 -158 210 -158 32 0 25 25 -15 58 -62 51 -114
131 -205 317 -79 160 -96 188 -161 257 -126 133 -285 238 -335 221z"/>
<path d="M7095 9699 c-11 -6 -65 -57 -120 -114 -85 -88 -109 -106 -160 -125
-131 -48 -256 -51 -390 -9 -93 28 -137 49 -244 114 -93 57 -165 83 -195 72
-27 -11 -3 -41 45 -57 55 -18 155 -91 254 -185 53 -51 105 -88 154 -113 67
-33 83 -37 150 -37 63 0 86 5 132 28 69 34 157 112 212 186 22 31 76 93 119
138 53 55 76 87 72 97 -3 9 -7 16 -8 16 0 0 -10 -5 -21 -11z"/>
<path d="M4880 9595 c-22 -27 -25 -184 -6 -311 35 -228 102 -394 158 -394 25
0 23 7 -17 91 -61 129 -95 308 -95 500 0 106 -14 145 -40 114z"/>
<path d="M5060 9440 c0 -81 89 -258 168 -333 l30 -29 -5 -121 c-6 -149 7 -206
70 -290 56 -74 106 -111 187 -138 78 -27 142 -84 239 -214 132 -176 234 -354
316 -550 76 -180 132 -265 176 -265 26 0 24 14 -10 63 -86 126 -170 365 -276
792 -77 307 -109 392 -192 506 -75 105 -142 166 -289 264 -91 61 -151 112
-255 218 -75 75 -141 137 -148 137 -6 0 -11 -17 -11 -40z m308 -302 c7 -9 6
-31 -5 -73 -21 -80 -7 -183 37 -271 75 -152 260 -249 406 -211 30 8 31 7 41
-40 6 -26 10 -49 9 -50 -1 -2 -24 6 -52 16 -27 10 -85 26 -129 36 -171 36
-226 63 -289 139 -69 84 -96 195 -76 307 29 161 34 175 58 147z m138 -99 c20
-33 -9 -249 -34 -249 -12 0 -42 66 -58 124 -14 51 -7 85 23 118 18 20 58 24
69 7z m221 -216 c36 -47 63 -112 54 -135 -25 -66 -78 -72 -178 -21 l-54 27 36
21 c48 29 84 64 101 98 17 32 22 33 41 10z"/>
<path d="M6427 9038 c-8 -18 -18 -44 -22 -57 -4 -13 -21 -47 -37 -74 -145
-246 -209 -477 -178 -643 14 -77 47 -146 68 -142 10 2 14 32 16 128 2 140 21
216 101 404 26 62 49 138 59 196 10 52 24 117 31 143 8 26 12 54 8 62 -9 25
-30 17 -46 -17z"/>
<path d="M7010 9045 c-17 -46 -12 -261 10 -380 27 -145 26 -295 -1 -395 -11
-41 -22 -84 -25 -96 -4 -15 0 -23 13 -28 34 -13 110 102 138 209 30 116 20
189 -66 495 -10 36 -19 88 -19 115 -3 92 -29 134 -50 80z"/>
<path d="M4897 8804 c-10 -10 -8 -147 3 -229 25 -181 76 -281 223 -434 81 -85
174 -199 203 -248 10 -18 25 -33 32 -33 46 0 -51 202 -217 450 -106 159 -162
280 -190 415 -11 54 -21 81 -32 83 -8 1 -18 0 -22 -4z"/>
<path d="M6822 8628 c-23 -29 -73 -255 -83 -377 -9 -122 -7 -166 22 -414 10
-85 10 -129 1 -209 -8 -69 -9 -105 -2 -112 18 -18 31 8 58 111 25 96 25 107
29 513 2 228 4 433 6 454 2 41 -12 56 -31 34z"/>
<path d="M5534 7745 c-4 -10 1 -21 14 -30 22 -16 90 -152 116 -232 17 -50 179
-379 197 -397 21 -23 20 33 -4 124 -30 116 -106 290 -170 392 -53 84 -81 118
-119 142 -26 17 -28 17 -34 1z"/>
<path d="M6009 7483 c-25 -66 -51 -184 -56 -259 -7 -100 0 -134 27 -134 16 0
20 7 20 34 0 18 14 81 30 139 36 125 39 239 8 245 -12 2 -22 -6 -29 -25z"/>
<path d="M6320 7376 c0 -38 65 -206 125 -322 37 -71 72 -135 77 -141 19 -24
30 -1 24 48 -16 119 -100 320 -163 390 -36 40 -63 50 -63 25z"/>
<path d="M6875 7288 c-55 -114 -87 -236 -83 -315 2 -46 7 -59 21 -61 10 -2 19
4 23 15 3 10 19 54 35 97 16 44 39 131 50 195 26 146 27 153 11 158 -7 3 -29
-31 -57 -89z"/>
<path d="M6670 6753 c-57 -20 -100 -50 -100 -69 0 -20 36 -18 105 6 34 12 84
20 120 20 65 0 91 14 75 39 -13 22 -145 24 -200 4z"/>
<path d="M4235 9573 c-291 -65 -832 -375 -1080 -618 -125 -122 -141 -172 -41
-121 29 15 141 49 247 75 310 77 477 135 659 226 214 107 378 257 380 348 0
39 -25 83 -52 91 -25 6 -82 6 -113 -1z m99 -39 c32 -12 14 -21 -53 -27 -166
-14 -475 -154 -598 -270 -32 -30 -43 -57 -23 -57 6 0 39 24 75 53 67 56 230
150 248 144 6 -2 -12 -17 -40 -34 -57 -36 -123 -91 -123 -104 0 -17 20 -9 72
30 75 57 146 94 166 86 14 -5 10 -12 -23 -40 -48 -41 -41 -54 14 -26 45 24 51
25 51 11 0 -26 -241 -132 -395 -173 -49 -13 -91 -29 -93 -35 -14 -43 295 50
446 135 57 32 209 136 222 152 3 3 21 20 39 36 l34 30 -21 -32 c-81 -117 -289
-242 -582 -351 -163 -60 -208 -74 -370 -112 -69 -16 -147 -36 -173 -44 -65
-20 -58 -7 39 78 164 142 422 307 655 419 239 114 372 155 433 131z"/>
<path d="M5205 6499 c-77 -28 -246 -89 -375 -135 -342 -124 -603 -223 -614
-234 -7 -7 -6 -14 1 -21 13 -13 70 5 523 168 591 211 668 242 655 263 -11 18
-49 10 -190 -41z"/>
<path d="M5530 6457 c-63 -35 -169 -95 -236 -134 -67 -39 -217 -124 -335 -188
-118 -65 -243 -135 -279 -155 -36 -21 -138 -79 -227 -130 -121 -68 -163 -97
-163 -111 0 -10 5 -19 12 -19 13 0 225 114 433 233 313 179 497 283 620 349
237 129 316 178 313 195 -2 9 -7 18 -13 20 -5 1 -62 -26 -125 -60z"/>
<path d="M7620 6711 c0 -20 951 -358 972 -345 23 15 -2 39 -62 61 -178 65
-869 293 -888 293 -12 0 -22 -4 -22 -9z"/>
<path d="M2985 4802 c-19 -13 -174 -181 -215 -233 -72 -91 -53 -118 82 -116
87 1 97 -1 155 -32 75 -40 126 -93 159 -166 86 -188 -13 -371 -201 -369 -118
1 -227 76 -293 201 -36 69 -58 87 -85 72 -26 -15 -21 -76 10 -138 36 -74 118
-152 199 -192 58 -29 81 -34 154 -37 111 -5 184 21 250 88 106 105 125 268 50
427 -54 117 -193 225 -310 240 -22 3 -40 11 -40 17 0 7 19 30 41 51 55 53 119
134 119 150 0 32 -49 56 -75 37z"/>
<path d="M3461 4666 c-6 -7 -36 -236 -66 -507 -48 -443 -52 -496 -39 -516 8
-13 23 -23 34 -23 40 0 48 36 84 369 20 178 38 326 40 328 5 6 11 -22 92 -437
36 -190 73 -355 81 -368 16 -26 61 -27 74 -2 4 8 72 152 150 320 78 168 147
310 152 315 6 6 7 -10 3 -45 -3 -30 -17 -267 -32 -527 -29 -506 -29 -503 21
-503 32 0 45 20 51 76 2 27 20 318 39 647 26 430 32 603 25 617 -14 25 -61 26
-83 2 -15 -17 -69 -125 -267 -544 -41 -86 -78 -151 -81 -145 -3 7 -46 215 -94
462 -48 248 -94 460 -102 473 -15 25 -64 30 -82 8z"/>
<path d="M9337 4601 c-71 -27 -165 -62 -209 -77 -122 -43 -120 -25 -47 -335
34 -145 74 -320 89 -389 77 -344 86 -367 142 -356 40 8 540 225 561 243 24 22
21 50 -8 69 -23 15 -32 12 -271 -90 -136 -58 -252 -106 -258 -106 -12 0 -49
147 -41 160 3 5 75 32 160 60 86 29 162 58 170 67 31 31 11 73 -35 73 -14 0
-92 -22 -173 -49 -81 -27 -149 -46 -151 -43 -13 23 -136 586 -129 591 4 4 92
38 195 76 103 37 193 74 200 82 8 10 9 22 2 41 -14 41 -52 38 -197 -17z"/>
<path d="M5488 4318 c-14 -12 -70 -109 -329 -572 l-94 -169 -3 60 c-2 33 1
158 6 279 6 123 6 229 1 241 -11 29 -63 32 -78 5 -6 -10 -19 -248 -30 -527
-19 -472 -19 -510 -4 -527 20 -22 46 -23 67 -2 12 11 16 36 16 99 0 46 3 86 8
88 6 4 358 -147 510 -218 65 -31 107 -32 122 -5 14 26 -1 55 -38 74 -15 8
-146 66 -292 130 -145 64 -266 118 -268 120 -2 2 62 121 142 264 80 143 159
287 177 319 18 32 61 108 96 169 65 113 79 166 47 178 -24 9 -39 7 -56 -6z"/>
<path d="M4682 4245 c-122 -34 -260 -161 -371 -344 -111 -184 -165 -408 -130
-546 14 -56 69 -120 115 -135 202 -67 518 263 613 641 67 264 -35 436 -227
384z m93 -95 c36 -14 55 -65 55 -147 0 -318 -394 -813 -531 -667 -35 37 -39
160 -10 269 54 195 187 398 326 497 75 53 115 65 160 48z"/>
<path d="M6782 4238 c-7 -7 -12 -28 -12 -47 0 -20 31 -256 70 -526 38 -269 67
-491 64 -494 -5 -5 -325 17 -331 23 -3 2 -23 170 -45 373 -22 202 -45 379 -51
393 -8 16 -22 26 -40 28 -50 6 -51 -18 -12 -376 19 -180 38 -346 41 -370 l7
-44 -80 7 c-67 6 -82 5 -96 -10 -46 -45 -6 -80 102 -89 41 -4 77 -8 79 -11 2
-2 6 -26 9 -52 7 -76 21 -103 53 -103 42 0 54 21 47 90 l-5 60 41 -1 c23 -1
101 -6 172 -13 l130 -11 11 -72 c12 -80 25 -103 60 -103 42 0 47 30 30 153 -9
62 -48 337 -86 612 -84 592 -79 562 -97 580 -18 18 -45 19 -61 3z"/>
<path d="M8583 4234 c-18 -8 -29 -50 -73 -291 -45 -245 -44 -263 10 -263 23 0
33 7 45 29 46 89 233 158 327 121 95 -38 138 -102 138 -207 0 -119 -75 -234
-191 -292 -105 -53 -194 -51 -279 5 -46 31 -84 27 -94 -8 -20 -75 152 -150
293 -127 135 21 268 122 332 254 32 65 34 76 34 170 0 92 -2 104 -30 154 -16
29 -47 68 -68 87 -44 37 -142 74 -198 74 -54 0 -138 -19 -182 -42 -22 -11 -41
-17 -44 -15 -2 3 7 66 21 139 14 74 26 148 26 164 0 45 -27 64 -67 48z"/>
<path d="M5760 4055 c-15 -18 -14 -122 5 -595 8 -195 15 -363 15 -372 0 -40
40 -49 420 -98 83 -11 157 -17 165 -13 39 14 39 72 -1 87 -9 3 -120 20 -246
36 -127 17 -235 33 -239 36 -9 5 -13 97 -4 105 2 3 68 -4 147 -14 l142 -20 18
23 c44 55 11 74 -167 96 -77 9 -142 19 -144 21 -6 4 -29 606 -24 613 2 2 68
-6 146 -18 78 -12 156 -22 173 -22 64 0 75 67 14 86 -34 11 -358 64 -391 64
-9 0 -22 -7 -29 -15z"/>
<path d="M8079 4036 c-9 -19 5 -89 80 -392 50 -202 89 -369 88 -371 -2 -1 -73
-36 -158 -77 -103 -50 -156 -70 -161 -62 -3 6 -22 88 -42 181 -19 94 -51 247
-71 340 -20 94 -43 204 -52 245 -20 97 -27 110 -63 110 -50 0 -55 -25 -26
-158 14 -64 58 -272 97 -462 44 -209 78 -352 88 -363 25 -30 70 -17 250 70 90
43 165 74 167 68 1 -5 8 -29 14 -53 14 -54 49 -75 80 -47 11 10 20 24 20 32 0
32 -223 920 -236 941 -20 30 -61 29 -75 -2z"/>
<path d="M7389 3986 c-83 -29 -144 -103 -206 -246 -148 -346 -111 -791 70
-825 143 -27 280 145 354 445 34 135 39 370 10 461 -24 75 -63 133 -107 158
-43 24 -70 26 -121 7z m115 -145 c73 -166 29 -521 -88 -714 -130 -214 -236
-120 -223 198 5 142 22 227 69 350 37 95 73 150 129 199 41 35 42 35 70 19 15
-9 35 -33 43 -52z"/>
</g>
</svg>
